ffmpeg version 3.4-static http://johnvansickle.com/ffmpeg/  Copyright (c) 2000-2017 the FFmpeg developers
  built with gcc 6.4.0 (Debian 6.4.0-7) 20170920
  configuration: --enable-gpl --enable-version3 --enable-static --disable-debug --disable-ffplay --disable-indev=sndio --disable-outdev=sndio --cc=gcc-6 --enable-fontconfig --enable-frei0r --enable-gnutls --enable-gray --enable-libfribidi --enable-libass --enable-libvmaf --enable-libfreetype --enable-libmp3lame --enable-libopencore-amrnb --enable-libopencore-amrwb --enable-libopenjpeg --enable-librubberband --enable-librtmp --enable-libsoxr --enable-libspeex --enable-libvorbis --enable-libopus --enable-libtheora --enable-libvidstab --enable-libvo-amrwbenc --enable-libvpx --enable-libwebp --enable-libx264 --enable-libx265 --enable-libxvid --enable-libzimg
  libavutil      55. 78.100 / 55. 78.100
  libavcodec     57.107.100 / 57.107.100
  libavformat    57. 83.100 / 57. 83.100
  libavdevice    57. 10.100 / 57. 10.100
  libavfilter     6.107.100 /  6.107.100
  libswscale      4.  8.100 /  4.  8.100
  libswresample   2.  9.100 /  2.  9.100
  libpostproc    54.  7.100 / 54.  7.100
Input #0, mov,mp4,m4a,3gp,3g2,mj2, from 'php/uploaded/1521230589_paramount.mp4':
  Metadata:
    major_brand     : mp42
    minor_version   : 1
    compatible_brands: mp42avc1
    creation_time   : 2008-04-12T10:07:46.000000Z
  Duration: 00:00:18.61, start: 0.000000, bitrate: 2376 kb/s
    Stream #0:0(eng): Audio: aac (LC) (mp4a / 0x6134706D), 44100 Hz, stereo, fltp, 124 kb/s (default)
    Metadata:
      creation_time   : 2008-04-12T10:07:46.000000Z
      handler_name    : Apple Sound Media Handler
    Stream #0:1(eng): Video: h264 (Main) (avc1 / 0x31637661), yuv420p(tv, bt709), 1024x556, 2243 kb/s, 30 fps, 30 tbr, 48k tbn, 96k tbc (default)
    Metadata:
      creation_time   : 2008-04-12T10:07:46.000000Z
      handler_name    : Apple Video Media Handler
Please use -b:a or -b:v, -b is ambiguous
Stream mapping:
  Stream #0:1 -> #0:0 (h264 (native) -> h264 (libx264))
  Stream #0:0 -> #0:1 (copy)
Press [q] to stop, [?] for help
[libx264 @ 0x5ca9e40] using cpu capabilities: MMX2 SSE2Fast SSSE3 SSE4.2
[libx264 @ 0x5ca9e40] profile High, level 2.1
[libx264 @ 0x5ca9e40] 264 - core 152 r19 ba24899 - H.264/MPEG-4 AVC codec - Copyleft 2003-2017 - http://www.videolan.org/x264.html - options: cabac=1 ref=5 deblock=1:0:0 analyse=0x3:0x113 me=hex subme=8 psy=1 psy_rd=1.00:0.00 mixed_ref=1 me_range=16 chroma_me=1 trellis=2 8x8dct=1 cqm=0 deadzone=21,11 fast_pskip=1 chroma_qp_offset=-2 threads=6 lookahead_threads=1 sliced_threads=0 nr=0 decimate=1 interlaced=0 bluray_compat=0 constrained_intra=0 bframes=3 b_pyramid=2 b_adapt=1 b_bias=0 direct=3 weightb=1 open_gop=0 weightp=2 keyint=250 keyint_min=20 scenecut=40 intra_refresh=0 rc_lookahead=50 rc=crf mbtree=1 crf=25.0 qcomp=0.60 qpmin=0 qpmax=69 qpstep=4 ip_ratio=1.40 aq=1:1.00
Output #0, mp4, to 'converted_videos/1521230589_paramount.mp4':
  Metadata:
    major_brand     : mp42
    minor_version   : 1
    compatible_brands: mp42avc1
    encoder         : Lavf57.83.100
    Stream #0:0(eng): Video: h264 (libx264) (avc1 / 0x31637661), yuv420p, 512x288, q=-1--1, 800 kb/s, 20 fps, 10240 tbn, 20 tbc (default)
    Metadata:
      creation_time   : 2008-04-12T10:07:46.000000Z
      handler_name    : Apple Video Media Handler
      encoder         : Lavc57.107.100 libx264
    Side data:
      cpb: bitrate max/min/avg: 0/0/800000 buffer size: 0 vbv_delay: -1
    Stream #0:1(eng): Audio: aac (LC) (mp4a / 0x6134706D), 44100 Hz, stereo, fltp, 126 kb/s (default)
    Metadata:
      creation_time   : 2008-04-12T10:07:46.000000Z
      handler_name    : Apple Sound Media Handler
Past duration 0.666664 too large
Past duration 0.999992 too large
frame=   70 fps=0.0 q=30.0 size=       0kB time=00:00:03.48 bitrate=   0.1kbits/s dup=0 drop=32 speed=6.92x    frame=  121 fps=120 q=30.0 size=       0kB time=00:00:05.99 bitrate=   0.1kbits/s dup=0 drop=57 speed=5.93x    frame=  159 fps=105 q=30.0 size=       0kB time=00:00:07.98 bitrate=   0.0kbits/s dup=0 drop=76 speed=5.27x    frame=  197 fps= 98 q=30.0 size=       0kB time=00:00:09.98 bitrate=   0.0kbits/s dup=0 drop=95 speed=4.95x    frame=  227 fps= 90 q=30.0 size=       0kB time=00:00:11.49 bitrate=   0.0kbits/s dup=0 drop=110 speed=4.56x    frame=  249 fps= 82 q=30.0 size=     256kB time=00:00:12.49 bitrate= 167.9kbits/s dup=0 drop=121 speed=4.13x    frame=  269 fps= 76 q=30.0 size=     256kB time=00:00:13.49 bitrate= 155.5kbits/s dup=0 drop=131 speed=3.82x    frame=  285 fps= 70 q=30.0 size=     512kB time=00:00:14.48 bitrate= 289.5kbits/s dup=0 drop=139 speed=3.57x    frame=  307 fps= 67 q=30.0 size=     512kB time=00:00:15.48 bitrate= 270.8kbits/s dup=0 drop=150 speed=3.37x    frame=  335 fps= 65 q=30.0 size=     512kB time=00:00:16.99 bitrate= 246.8kbits/s dup=0 drop=164 speed=3.31x    frame=  367 fps= 65 q=30.0 size=     768kB time=00:00:18.48 bitrate= 340.4kbits/s dup=0 drop=180 speed=3.28x    frame=  375 fps= 60 q=-1.0 Lsize=     936kB time=00:00:18.60 bitrate= 412.1kbits/s dup=0 drop=184 speed=2.97x    
video:640kB audio:282kB subtitle:0kB other streams:0kB global headers:0kB muxing overhead: 1.406893%
[libx264 @ 0x5ca9e40] frame I:6     Avg QP:17.74  size:  2476
[libx264 @ 0x5ca9e40] frame P:111   Avg QP:23.30  size:  3372
[libx264 @ 0x5ca9e40] frame B:258   Avg QP:25.31  size:  1030
[libx264 @ 0x5ca9e40] consecutive B-frames:  6.1%  3.2%  9.6% 81.1%
[libx264 @ 0x5ca9e40] mb I  I16..4: 36.1% 59.5%  4.3%
[libx264 @ 0x5ca9e40] mb P  I16..4:  4.2% 13.9%  2.1%  P16..4: 29.8% 13.0%  7.2%  0.0%  0.0%    skip:29.7%
[libx264 @ 0x5ca9e40] mb B  I16..4:  0.5%  1.4%  0.4%  B16..8: 31.5%  7.0%  1.4%  direct: 1.9%  skip:55.9%  L0:42.3% L1:46.8% BI:10.9%
[libx264 @ 0x5ca9e40] 8x8 transform intra:65.7% inter:72.2%
[libx264 @ 0x5ca9e40] direct mvs  spatial:89.9% temporal:10.1%
[libx264 @ 0x5ca9e40] coded y,uvDC,uvAC intra: 49.6% 58.1% 19.1% inter: 11.1% 11.1% 0.5%
[libx264 @ 0x5ca9e40] i16 v,h,dc,p: 28% 28%  9% 36%
[libx264 @ 0x5ca9e40] i8 v,h,dc,ddl,ddr,vr,hd,vl,hu:  7% 14% 19%  9%  9%  7% 12%  9% 14%
[libx264 @ 0x5ca9e40] i4 v,h,dc,ddl,ddr,vr,hd,vl,hu: 11% 12% 11% 11%  9%  8% 11% 12% 15%
[libx264 @ 0x5ca9e40] i8c dc,h,v,p: 46% 31% 13% 11%
[libx264 @ 0x5ca9e40] Weighted P-Frames: Y:5.4% UV:4.5%
[libx264 @ 0x5ca9e40] ref P L0: 68.6% 11.7% 12.7%  3.7%  3.0%  0.4%
[libx264 @ 0x5ca9e40] ref B L0: 92.2%  5.4%  1.8%  0.6%
[libx264 @ 0x5ca9e40] ref B L1: 97.3%  2.7%
[libx264 @ 0x5ca9e40] kb/s:279.48
